<svg width="18" height="19" viewBox="0 0 18 19" fill="none" xmlns="http://www.w3.org/2000/svg">
<path fill-rule="evenodd" clip-rule="evenodd" d="M14.4402 12.8777C14.9543 12.877 15.4522 12.6979 15.849 12.3712C16.2458 12.0444 16.517 11.5901 16.6163 11.0857L17.7313 5.5127C17.7958 5.18971 17.788 4.85641 17.7084 4.5368C17.6288 4.2172 17.4793 3.91924 17.2707 3.66431C17.0622 3.40937 16.7997 3.20381 16.5022 3.06244C16.2048 2.92107 15.8796 2.84738 15.5503 2.84668H4.45025V1.73169C4.44998 1.43684 4.33296 1.15408 4.12475 0.945312C3.91654 0.73654 3.6341 0.618733 3.33925 0.617676H1.12426C0.834452 0.626358 0.559425 0.747566 0.357503 0.955627C0.155581 1.16369 0.042653 1.44224 0.042653 1.73218C0.042653 2.02211 0.155581 2.30067 0.357503 2.50873C0.559425 2.71679 0.834452 2.838 1.12426 2.84668H2.23925V13.9917C1.79797 13.9897 1.36603 14.1188 0.998158 14.3625C0.630288 14.6062 0.343053 14.9536 0.17281 15.3607C0.00256826 15.7678 -0.0430143 16.2163 0.0418595 16.6494C0.126733 17.0824 0.338227 17.4805 0.649556 17.7933C0.960885 18.106 1.35805 18.3192 1.7907 18.4061C2.22335 18.4929 2.67204 18.4494 3.07992 18.2809C3.48779 18.1125 3.83653 17.8269 4.0819 17.4601C4.32727 17.0933 4.45824 16.662 4.45824 16.2207H12.2243C12.226 16.6594 12.3577 17.0877 12.6027 17.4516C12.8478 17.8155 13.1951 18.0986 13.6009 18.2653C14.0067 18.4319 14.4528 18.4746 14.8828 18.3879C15.3129 18.3013 15.7076 18.0891 16.0172 17.7783C16.3267 17.4674 16.5373 17.0719 16.6222 16.6415C16.7072 16.2111 16.6627 15.7652 16.4944 15.36C16.3261 14.9549 16.0416 14.6087 15.6767 14.3652C15.3118 14.1216 14.883 13.9917 14.4443 13.9917H4.45726V12.8777H14.4402ZM15.5553 5.0777L14.4402 10.6507H4.45324V5.0777H15.5532H15.5553Z" fill="#33A0FF"/>
</svg>
