<svg width="135" height="45" viewBox="0 0 135 45" fill="none" xmlns="http://www.w3.org/2000/svg">
<rect x="0.0625" y="0.402832" width="44" height="44" rx="16" fill="#40BFFF"/>
<path fill-rule="evenodd" clip-rule="evenodd" d="M31.1244 20.6743C32.079 21.6289 32.079 23.1766 31.1244 24.1313L23.791 31.4646C22.8364 32.4192 21.2887 32.4192 20.3341 31.4646L13.0007 24.1313C12.0461 23.1766 12.0461 21.6289 13.0007 20.6743L20.3341 13.341C21.2887 12.3863 22.8364 12.3863 23.791 13.341L31.1244 20.6743ZM22.0626 18.5264L18.1862 22.4028L22.0626 26.2791L25.9389 22.4028L22.0626 18.5264Z" fill="white"/>
<path d="M59.2339 17.5447H51.4939V30.1807H59.2339V27.7147H54.5719V24.9427H58.6939V22.5667H54.5719V20.0107H59.2339V17.5447ZM61.0522 25.1407H68.9722V22.5847H61.0522V25.1407ZM71.1516 23.8447C71.1516 27.6247 73.7796 30.2707 77.5056 30.2707C80.5116 30.2707 82.7796 28.5967 83.4996 25.8607H80.1156C79.5936 26.9407 78.6396 27.4807 77.4696 27.4807C75.5796 27.4807 74.2836 26.0767 74.2836 23.8447C74.2836 21.6127 75.5796 20.2087 77.4696 20.2087C78.6396 20.2087 79.5936 20.7487 80.1156 21.8287H83.4996C82.7796 19.0927 80.5116 17.4007 77.5056 17.4007C73.7796 17.4007 71.1516 20.0647 71.1516 23.8447ZM95.2126 25.1587C95.2126 21.9727 92.9446 19.9927 89.9926 19.9927C87.0586 19.9927 84.7726 21.9727 84.7726 25.1587C84.7726 28.3447 87.0046 30.3247 89.9566 30.3247C92.9086 30.3247 95.2126 28.3447 95.2126 25.1587ZM87.9046 25.1587C87.9046 23.4487 88.8766 22.6567 89.9926 22.6567C91.0726 22.6567 92.0806 23.4487 92.0806 25.1587C92.0806 26.8507 91.0546 27.6607 89.9566 27.6607C88.8406 27.6607 87.9046 26.8507 87.9046 25.1587ZM110.687 30.1807H113.747V24.3127C113.747 21.6127 112.145 20.0287 109.661 20.0287C108.203 20.0287 106.943 20.8387 106.277 21.9007C105.593 20.6947 104.369 20.0287 102.857 20.0287C101.543 20.0287 100.517 20.5867 99.9235 21.3967V20.1367H96.8455V30.1807H99.9235V24.7267C99.9235 23.4127 100.679 22.6927 101.849 22.6927C103.019 22.6927 103.775 23.4127 103.775 24.7267V30.1807H106.835V24.7267C106.835 23.4127 107.591 22.6927 108.761 22.6927C109.931 22.6927 110.687 23.4127 110.687 24.7267V30.1807ZM129.742 30.1807H132.802V24.3127C132.802 21.6127 131.2 20.0287 128.716 20.0287C127.258 20.0287 125.998 20.8387 125.332 21.9007C124.648 20.6947 123.424 20.0287 121.912 20.0287C120.598 20.0287 119.572 20.5867 118.978 21.3967V20.1367H115.9V30.1807H118.978V24.7267C118.978 23.4127 119.734 22.6927 120.904 22.6927C122.074 22.6927 122.83 23.4127 122.83 24.7267V30.1807H125.89V24.7267C125.89 23.4127 126.646 22.6927 127.816 22.6927C128.986 22.6927 129.742 23.4127 129.742 24.7267V30.1807Z" fill="#22262A"/>
</svg>
