<svg width="19" height="17" viewBox="0 0 19 17" fill="none" xmlns="http://www.w3.org/2000/svg">
<path fill-rule="evenodd" clip-rule="evenodd" d="M12.8221 2.96095C13.466 2.96161 14.0959 3.14809 14.6363 3.49806C15.1768 3.84802 15.6046 4.34656 15.8686 4.93379C16.1326 5.52101 16.2215 6.17198 16.1246 6.80848C16.0276 7.44498 15.749 8.03992 15.3221 8.52192C14.7091 9.21292 9.48217 14.106 9.48217 14.106C9.48217 14.106 4.24415 9.21293 3.63115 8.51093C3.08996 7.90347 2.79224 7.11753 2.79516 6.30396C2.81032 5.42723 3.16923 4.59147 3.79461 3.97681C4.41998 3.36216 5.26179 3.01777 6.13866 3.01777C7.01553 3.01777 7.85728 3.36216 8.48266 3.97681C9.10803 4.59147 9.467 5.42723 9.48217 6.30396C9.48217 5.86482 9.56863 5.42995 9.73668 5.02424C9.90474 4.61853 10.1511 4.24992 10.4616 3.9394C10.7721 3.62888 11.1407 3.38254 11.5464 3.21449C11.9522 3.04643 12.387 2.95997 12.8262 2.95997L12.8221 2.96095ZM12.8262 0.730965C11.6199 0.72886 10.4458 1.12032 9.48217 1.84596C8.37821 1.02657 7.0103 0.644147 5.64147 0.772225C4.27263 0.900303 2.99943 1.52985 2.06664 2.5398C1.13385 3.54976 0.607294 4.86886 0.588185 6.24354C0.569077 7.61822 1.05876 8.95145 1.96312 9.98695C2.58912 10.7049 6.71212 14.565 7.96312 15.731C8.37604 16.1171 8.9203 16.3319 9.48565 16.3319C10.051 16.3319 10.5952 16.1171 11.0081 15.731C12.2521 14.566 16.3581 10.716 16.9921 9.99897C17.7034 9.19543 18.1677 8.20361 18.329 7.14265C18.4903 6.08169 18.3419 4.99671 17.9015 4.01807C17.4611 3.03944 16.7475 2.20873 15.8465 1.6258C14.9455 1.04287 13.8953 0.732491 12.8221 0.731942L12.8262 0.730965Z" fill="#33A0FF"/>
</svg>
