<svg width="21" height="21" viewBox="0 0 21 21" fill="none" xmlns="http://www.w3.org/2000/svg">
<path fill-rule="evenodd" clip-rule="evenodd" d="M19.8729 17.3183C19.3895 16.03 18.6483 14.854 17.6947 13.8625C16.7411 12.871 15.5952 12.0848 14.3273 11.5521C15.0168 10.9854 15.5736 10.2741 15.9584 9.46849C16.3432 8.66286 16.5466 7.78251 16.5543 6.88961C16.5294 5.32475 15.9259 3.82468 14.8604 2.67914C13.7948 1.5336 12.3429 0.823873 10.7851 0.687107C10.2749 0.623829 9.75896 0.623829 9.24881 0.687107C7.69187 0.825042 6.24114 1.53528 5.17665 2.6807C4.11217 3.82613 3.50935 5.32554 3.48456 6.88961C3.49198 7.78255 3.69529 8.66298 4.0801 9.46864C4.46492 10.2743 5.02189 10.9856 5.71159 11.5521C4.4434 12.0846 3.29724 12.8707 2.34342 13.8622C1.38959 14.8538 0.648196 16.0298 0.164688 17.3183C0.0282993 17.6951 -0.0121891 18.0999 0.0469063 18.4962C0.106002 18.8925 0.262815 19.2679 0.503167 19.5883C0.752581 19.9175 1.07528 20.1839 1.44561 20.3664C1.81594 20.5489 2.22372 20.6425 2.6365 20.6396H17.4111C17.8235 20.6424 18.2309 20.5488 18.6008 20.3663C18.9707 20.1838 19.293 19.9174 19.542 19.5883C19.7817 19.2675 19.9375 18.8918 19.9953 18.4954C20.0531 18.099 20.011 17.6943 19.8729 17.3183ZM6.09878 6.88961C6.11605 5.94181 6.48618 5.03458 7.13675 4.34559C7.78731 3.65659 8.67143 3.23544 9.61599 3.1646C9.88517 3.13126 10.1574 3.13126 10.4266 3.1646C11.137 3.2736 11.8013 3.58418 12.3407 4.05948C12.8801 4.53479 13.272 5.1549 13.47 5.84632C13.6679 6.53775 13.6637 7.27147 13.4577 7.96054C13.2516 8.64961 12.8525 9.26512 12.3077 9.73411C11.7628 10.2031 11.095 10.5059 10.3834 10.6066C9.67176 10.7073 8.94619 10.6017 8.29272 10.3023C7.63925 10.003 7.08527 9.52237 6.69642 8.91749C6.30756 8.31262 6.10016 7.60885 6.09878 6.88961ZM2.63398 18.1396C3.22592 16.6634 4.24585 15.3984 5.56244 14.5074C6.87902 13.6164 8.43199 13.1403 10.0213 13.1403C11.6107 13.1403 13.1636 13.6164 14.4802 14.5074C15.7968 15.3984 16.8167 16.6634 17.4086 18.1396H2.6365H2.63398Z" fill="#22262A"/>
</svg>
